<svg id="Calque_1" data-name="Calque 1" xmlns="http://www.w3.org/2000/svg" viewBox="0 0 354.29 340.8"><defs><style>.cls-1{fill:#fff;}</style></defs><path class="cls-1" d="M331,69.24A40.88,40.88,0,0,1,366.05,83a41.62,41.62,0,0,1,9.87,27.33,42.16,42.16,0,0,1-4.71,17.51c-2.3,4.86-6.11,8.71-10,12.32-11.8,10-29.58,12.19-43.5,5.44-13-5.88-22.37-19.19-23.06-33.49-1.41-15.51,7.44-31.22,21.23-38.34A39.77,39.77,0,0,1,331,69.24Z" transform="translate(-72.86 -68.98)"/><path class="cls-1" d="M131.57,70.43q65.33.07,130.64,0a11.93,11.93,0,0,1,11.93,11.92q0,26.9,0,53.81a11.92,11.92,0,0,1-11.92,11.92H131.56a11.9,11.9,0,0,1-11.91-11.92q0-26.91,0-53.82A11.9,11.9,0,0,1,131.57,70.43Z" transform="translate(-72.86 -68.98)"/><path class="cls-1" d="M306.29,170.56q28.93,0,57.86,0a9.94,9.94,0,0,1,9.92,10c-.13,44,0,88.1-.05,132.15a9.94,9.94,0,0,1-10,9.9c-11.66-.08-23.33.07-35,0-7.56.05-15.14-.05-22.7,0a9.93,9.93,0,0,1-10-9.92q0-66.06,0-132.15A9.94,9.94,0,0,1,306.29,170.56Z" transform="translate(-72.86 -68.98)"/><path class="cls-1" d="M130.69,170.51c44.14.09,88.28,0,132.41,0a11,11,0,0,1,11,11q0,27.8,0,55.58a11,11,0,0,1-11.05,11c-18,0-36,0-54,0a11,11,0,0,0-11.08,11c0,17.59-.05,35.17,0,52.75A11,11,0,0,1,186.94,323q-28.12-.09-56.24,0a11,11,0,0,1-11.06-11q0-65.19,0-130.41A11,11,0,0,1,130.69,170.51Z" transform="translate(-72.86 -68.98)"/><path class="cls-1" d="M84.67,406.54A2.22,2.22,0,0,1,84,408.3a2.35,2.35,0,0,1-1.62.61H75a2.09,2.09,0,0,1-1.48-.57,2.38,2.38,0,0,1-.61-1.8V366.36A8.51,8.51,0,0,1,75,360.17a7.91,7.91,0,0,1,6-2.16h21.31a3.67,3.67,0,0,1,1.55.32c.46.22.69.83.69,1.84v6.12c0,1.2-.75,1.8-2.24,1.8H86.9c-1.49,0-2.23.89-2.23,2.66v8.64H99.28a2.39,2.39,0,0,1,1.69.51,2.17,2.17,0,0,1,.54,1.65v6.05c0,1.25-.74,1.87-2.23,1.87H84.67Z" transform="translate(-72.86 -68.98)"/><path class="cls-1" d="M138.81,402.87a5.2,5.2,0,0,1-.72,3,5,5,0,0,1-2.09,1.66q-4.68,2.22-13.54,2.23-7.33,0-10.11-3.1t-2.77-8.42q0-6.12,4.1-8.64,3.45-2.08,11.23-2.09a72.15,72.15,0,0,1,7.49.29v-2.95a13.58,13.58,0,0,0-.5-4.47q-1-2.73-7.2-2.73a38.5,38.5,0,0,0-7.85.86,26.53,26.53,0,0,1-2.67.5,1.27,1.27,0,0,1-1.22-1,10,10,0,0,1-.5-2.88,1.52,1.52,0,0,1,1.29-1.52,43,43,0,0,1,12-1.72q8.14,0,10.73,2.66c1.59,1.58,2.38,4.73,2.38,9.43Zm-6.41-10q-3.17-.28-6.77-.29-6,0-8.06,1.37c-1.15.72-1.73,2.11-1.73,4.17a6.6,6.6,0,0,0,1.58,4.79q1.59,1.62,5.91,1.62a20.28,20.28,0,0,0,7.41-1.08,2.46,2.46,0,0,0,1.37-1.22,8.17,8.17,0,0,0,.29-2.45Z" transform="translate(-72.86 -68.98)"/><path class="cls-1" d="M161.56,394.37,156,392.79q-8.36-2.31-8.36-10.08,0-10.74,13.54-10.73a36.79,36.79,0,0,1,9.79,1.08,1.55,1.55,0,0,1,1.3,1.58,16.53,16.53,0,0,1-.79,3.1,1.09,1.09,0,0,1-1.16.93c-.14,0-.64-.07-1.51-.21a31.09,31.09,0,0,0-7.77-.94q-4.11,0-5.55,1.3a4.58,4.58,0,0,0-1.44,3.6,3.7,3.7,0,0,0,1.08,2.73,11.91,11.91,0,0,0,4.54,2.16l5,1.52q4.82,1.44,6.87,3.63t2.05,6.52q0,10.8-13.89,10.8-7.78,0-11.74-1.73a1.53,1.53,0,0,1-1.08-1.51,12.11,12.11,0,0,1,.87-2.88,1.48,1.48,0,0,1,1.44-1.15,7.14,7.14,0,0,1,1.65.43,30.49,30.49,0,0,0,9.07,1.22q4.47,0,5.94-1.4a4.87,4.87,0,0,0,1.48-3.71,3.37,3.37,0,0,0-1.08-2.63A13.64,13.64,0,0,0,161.56,394.37Z" transform="translate(-72.86 -68.98)"/><path class="cls-1" d="M211.89,390.55q0,11-3.75,15.12t-12.6,4.11a21.83,21.83,0,0,1-9.07-1.55,10.42,10.42,0,0,1-5.08-5.72q-1.75-4.18-1.76-11.74a33.28,33.28,0,0,1,1.15-9.5,11.84,11.84,0,0,1,3.49-5.8,13.72,13.72,0,0,1,5.12-2.77,24.32,24.32,0,0,1,6.66-.79,31.63,31.63,0,0,1,7.09.64,10.79,10.79,0,0,1,4.82,2.6,10.9,10.9,0,0,1,3,5.68A42.91,42.91,0,0,1,211.89,390.55Zm-6.48.36q0-8.21-2-10.76c-1.32-1.7-3.83-2.56-7.53-2.56q-5.11,0-7.41,2.7t-2.31,10.34a27.18,27.18,0,0,0,1,8.64,6.58,6.58,0,0,0,3,3.92,12.42,12.42,0,0,0,5.51,1,17.09,17.09,0,0,0,4.28-.43,6.45,6.45,0,0,0,2.95-1.8,8.08,8.08,0,0,0,1.91-4A34.55,34.55,0,0,0,205.41,390.91Z" transform="translate(-72.86 -68.98)"/><path class="cls-1" d="M232.88,358.33q0,3.39-1.61,4.93a6.67,6.67,0,0,1-4.78,1.54q-6.31,0-6.31-6.39t6.31-6.47a8.19,8.19,0,0,1,3.74.77,4.18,4.18,0,0,1,2.08,2.35A9.54,9.54,0,0,1,232.88,358.33Zm-.23,48.2a2.13,2.13,0,0,1-2.23,2.39h-7.93a2.09,2.09,0,0,1-1.5-.54,2.43,2.43,0,0,1-.58-1.85v-34c0-1.64.72-2.47,2.15-2.47h8a2.3,2.3,0,0,1,1.5.47,2.39,2.39,0,0,1,.58,1.92Z" transform="translate(-72.86 -68.98)"/><path class="cls-1" d="M249.67,407.33c0,1.1-.53,1.66-1.59,1.66H244.7c-1,0-1.51-.56-1.51-1.66v-28q0-3.17,2.37-4.25a30.88,30.88,0,0,1,7.88-2.23,54.61,54.61,0,0,1,8.9-.79,17.24,17.24,0,0,1,7,1.08,6,6,0,0,1,3.13,3.31,23.28,23.28,0,0,1,.72,7.06v23.83c0,1.1-.5,1.66-1.51,1.66h-3.46c-1,0-1.51-.56-1.51-1.66V384.79a17,17,0,0,0-.43-4.53,3.06,3.06,0,0,0-1.77-1.95,11.45,11.45,0,0,0-4.21-.57,22.93,22.93,0,0,0-8.86,1.44,3.59,3.59,0,0,0-1.36,1,3.44,3.44,0,0,0-.43,2Z" transform="translate(-72.86 -68.98)"/><path class="cls-1" d="M291.21,407.33c0,1.1-.53,1.66-1.59,1.66h-3.38c-1,0-1.51-.56-1.51-1.66v-28q0-3.17,2.37-4.25a31.09,31.09,0,0,1,7.89-2.23,54.4,54.4,0,0,1,8.89-.79,17.18,17.18,0,0,1,7,1.08,5.93,5.93,0,0,1,3.13,3.31,23.28,23.28,0,0,1,.72,7.06v23.83c0,1.1-.5,1.66-1.51,1.66h-3.45c-1,0-1.52-.56-1.52-1.66V384.79a16.61,16.61,0,0,0-.43-4.53,3.07,3.07,0,0,0-1.76-1.95,11.48,11.48,0,0,0-4.21-.57,22.9,22.9,0,0,0-8.86,1.44,3.64,3.64,0,0,0-1.37,1,3.44,3.44,0,0,0-.43,2Z" transform="translate(-72.86 -68.98)"/><path class="cls-1" d="M356.44,390.55q0,11-3.74,15.12t-12.6,4.11a21.88,21.88,0,0,1-9.08-1.55,10.41,10.41,0,0,1-5.07-5.72q-1.77-4.18-1.77-11.74a33.24,33.24,0,0,1,1.16-9.5,11.77,11.77,0,0,1,3.49-5.8,13.68,13.68,0,0,1,5.11-2.77,24.42,24.42,0,0,1,6.66-.79,31.57,31.57,0,0,1,7.09.64,10.28,10.28,0,0,1,7.85,8.28A42.91,42.91,0,0,1,356.44,390.55Zm-6.48.36q0-8.21-2-10.76c-1.32-1.7-3.83-2.56-7.52-2.56q-5.11,0-7.42,2.7t-2.3,10.34a27.23,27.23,0,0,0,1,8.64,6.62,6.62,0,0,0,3,3.92,12.42,12.42,0,0,0,5.51,1,17,17,0,0,0,4.28-.43,6.48,6.48,0,0,0,3-1.8,8.16,8.16,0,0,0,1.9-4A33.84,33.84,0,0,0,350,390.91Z" transform="translate(-72.86 -68.98)"/><path class="cls-1" d="M377.61,402.22q1.72-5.4,10.08-27.79c.48-1.16,1.1-1.73,1.87-1.73a24.15,24.15,0,0,1,3.82.21c.76.15,1.15.56,1.15,1.23a6.48,6.48,0,0,1-.43,1.8l-11.67,29.88a5.85,5.85,0,0,1-1.55,2.48,4,4,0,0,1-2.63.76h-1.58a3.91,3.91,0,0,1-2.7-.76,6.33,6.33,0,0,1-1.47-2.55L361.19,376a5.86,5.86,0,0,1-.5-1.8,1.23,1.23,0,0,1,1.15-1.3,27.44,27.44,0,0,1,4.18-.21c.76,0,1.34.55,1.72,1.65Q375.94,396.82,377.61,402.22Z" transform="translate(-72.86 -68.98)"/><path class="cls-1" d="M427.14,402.87a5.2,5.2,0,0,1-.72,3,4.91,4.91,0,0,1-2.09,1.66q-4.68,2.22-13.53,2.23-7.35,0-10.12-3.1t-2.77-8.42q0-6.12,4.11-8.64,3.45-2.08,11.23-2.09a72.28,72.28,0,0,1,7.49.29v-2.95a13.24,13.24,0,0,0-.51-4.47q-1-2.73-7.2-2.73a38.57,38.57,0,0,0-7.85.86,26.63,26.63,0,0,1-2.66.5,1.28,1.28,0,0,1-1.23-1,10.37,10.37,0,0,1-.5-2.88,1.52,1.52,0,0,1,1.3-1.52,42.84,42.84,0,0,1,12-1.72q8.13,0,10.73,2.66c1.58,1.58,2.37,4.73,2.37,9.43Zm-6.4-10c-2.12-.19-4.37-.29-6.77-.29q-6,0-8.07,1.37c-1.15.72-1.72,2.11-1.72,4.17a6.56,6.56,0,0,0,1.58,4.79q1.58,1.62,5.9,1.62a20.38,20.38,0,0,0,7.42-1.08,2.49,2.49,0,0,0,1.37-1.22,8.17,8.17,0,0,0,.29-2.45Z" transform="translate(-72.86 -68.98)"/></svg>